# Blender v2.79 (sub 0) OBJ File: 'cube.blend'
# www.blender.org
mtllib cube.mtl
o Cube
v 0.165100 0.165100 0.000300
v 0.165100 -0.165100 0.000300
v -0.165100 -0.165100 0.000300
v -0.165100 0.165100 0.000300
v 0.165100 0.165100 0.279700
v 0.165100 -0.165100 0.279700
v -0.165100 -0.165100 0.279700
v -0.165100 0.165100 0.279700
vt 1.000000 1.000000
vt 0.000000 0.000000
vt 1.000000 0.000000
vt 1.000000 1.000000
vt 0.000000 0.000001
vt 1.000000 -0.000000
vt 1.000000 0.000000
vt 0.000000 1.000000
vt 0.000000 0.000000
vt 0.000000 0.000000
vt 1.000000 1.000000
vt 0.000000 1.000000
vt 0.000000 1.000000
vt 0.000000 1.000000
vt 1.000000 1.000000
vt 1.000000 0.000000
vt 1.000000 0.000000
vt 0.000000 0.000000
vt 0.000000 1.000000
vt 1.000000 1.000000
vn 1.0000 0.0000 -0.0000
vn -0.0000 -1.0000 -0.0000
vn -1.0000 0.0000 -0.0000
vn 0.0000 1.0000 0.0000
vn 0.0000 0.0000 1.0000
vn 0.0000 0.0000 -1.0000
g Cube_Cube_Side
usemtl Side
s off
f 5/1/1 2/2/1 1/3/1
f 6/4/2 3/5/2 2/6/2
f 3/7/3 8/8/3 4/9/3
f 1/10/4 8/11/4 5/12/4
f 5/1/1 6/13/1 2/2/1
f 6/4/2 7/14/2 3/5/2
f 3/7/3 7/15/3 8/8/3
f 1/10/4 4/16/4 8/11/4
g Cube_Cube_Top
usemtl Top
f 8/17/5 6/13/5 5/18/5
f 8/17/5 7/15/5 6/13/5
g Cube_Cube_Bottom
usemtl Bottom
f 2/6/6 4/19/6 1/10/6
f 2/6/6 3/20/6 4/19/6
