# Blender v2.79 (sub 0) OBJ File: 'field_collision.blend'
# www.blender.org
mtllib field_centerstep_collision.mtl
o Grid_Grid.002
v -1.645000 -1.587000 0.000000
v 1.645000 -1.587000 0.000000
v -1.324449 -1.264036 0.091000
v 1.324449 -1.264036 0.091000
v -1.645000 1.587000 0.000000
v -1.324449 1.264036 0.091000
v 1.324449 1.264036 0.091000
v 1.645000 1.587000 0.000000
vn 0.0000 -0.2712 0.9625
vn -0.2731 0.0000 0.9620
vn 0.0000 0.0000 1.0000
vn 0.2731 0.0000 0.9620
vn 0.0000 0.2712 0.9625
g Grid_Grid.002_None
usemtl None
s off
f 2//1 3//1 1//1
f 3//2 5//2 1//2
f 4//3 6//3 3//3
f 2//4 7//4 4//4
f 7//5 5//5 6//5
f 2//1 4//1 3//1
f 3//2 6//2 5//2
f 4//3 7//3 6//3
f 2//4 8//4 7//4
f 7//5 8//5 5//5
